<svg xmlns="http://www.w3.org/2000/svg" viewBox="0 0 30.19 30.19"><defs><style>.cls-1,.cls-2{fill:#fff;stroke-miterlimit:10;}.cls-1{stroke:#abaeb7;stroke-width:1.16px;}.cls-2{stroke:#b4b8c1;stroke-width:0.75px;}.cls-3{fill:#c0211d;}</style></defs><title>ICONO CEDULA INVALIDA</title><g id="Capa_2" data-name="Capa 2"><g id="Capa_3" data-name="Capa 3"><rect class="cls-1" x="5.9" y="9.25" width="18.71" height="12.37" rx="1.85"/><line class="cls-2" x1="21.92" y1="12.66" x2="14.32" y2="12.66"/><line class="cls-2" x1="21.92" y1="17.01" x2="14.32" y2="17.01"/><line class="cls-2" x1="22.01" y1="14.78" x2="14.41" y2="14.78"/><path class="cls-3" d="M15.09,0a15.1,15.1,0,1,0,15.1,15.09A15.1,15.1,0,0,0,15.09,0ZM1.89,15.09A13.13,13.13,0,0,1,6.12,5.43L22.5,26A13.21,13.21,0,0,1,1.89,15.09Zm22.18,9.67L7.69,4.16a13.2,13.2,0,0,1,16.38,20.6Z"/></g></g></svg>