<svg xmlns="http://www.w3.org/2000/svg" viewBox="0 0 20.05 34.41"><defs><style>.cls-1{fill:#8a8b8e;}</style></defs><title>MANO</title><g id="Capa_2" data-name="Capa 2"><g id="Capa_3" data-name="Capa 3"><path class="cls-1" d="M18.52,12.62l-.51.24a3,3,0,0,0-1.62,2.42V20a5.44,5.44,0,0,0-.54-.15V3.17a1.72,1.72,0,0,0-1.72-1.71H13.9a1.61,1.61,0,0,0-1.59,1.71V19.74h-.49v-18A1.72,1.72,0,0,0,10.11,0H9.87A1.72,1.72,0,0,0,8.16,1.71v18H7.58V3.8A1.61,1.61,0,0,0,6,2.08H5.76A1.73,1.73,0,0,0,4,3.8V19.91c-.12,0-.37.06-.49.1V6.6A1.61,1.61,0,0,0,2,4.89H1.73A1.72,1.72,0,0,0,0,6.6V24.76c0,.11,0,.23,0,.34V29a5.38,5.38,0,0,0,5.36,5.37h9.33A5.38,5.38,0,0,0,20.05,29V12.26A5.11,5.11,0,0,0,18.52,12.62Z"/></g></g></svg>