<svg xmlns="http://www.w3.org/2000/svg" xmlns:xlink="http://www.w3.org/1999/xlink" viewBox="0 0 49.69 38.9"><defs><style>.cls-1{fill:none;}.cls-2{clip-path:url(#clip-path);}.cls-3{fill:#c0211d;}.cls-4{fill:#fff;}</style><clipPath id="clip-path" transform="translate(-0.11)"><rect id="SVGID" class="cls-1" y="0.04" width="49.67" height="39.05"/></clipPath></defs><title>logo colgate</title><g id="Capa_2" data-name="Capa 2"><g id="Capa_3" data-name="Capa 3"><g class="cls-2"><path class="cls-3" d="M49.8,17.32c0,28.77-49.69,28.77-49.69,0V0H49.8Z" transform="translate(-0.11)"/><path class="cls-4" d="M14.41,16.85a1.11,1.11,0,0,1-.86-.29,1.17,1.17,0,0,1-.14-1,2.37,2.37,0,0,1,2.12-2,.83.83,0,0,1,.67.25,1,1,0,0,1,.14.86c-.42,2.08-1.68,2.18-1.93,2.18m1.15-4.1c-1.68,0-3.53,1-3.87,2.7s1.25,2.2,2.28,2.21a3.89,3.89,0,0,0,4.08-2.78c.31-1.37-.9-2.13-2.49-2.13" transform="translate(-0.11)"/><path class="cls-4" d="M30.91,15.29c-.88.09-1.21.32-1.28.74s.16.66,1,.62A3.62,3.62,0,0,0,32,16.33l.41-1.06a8.7,8.7,0,0,0-1.47,0M29.6,12.9a13,13,0,0,1,2.3-.2c1.79,0,2.89.59,2.38,1.93l-.65,1.69a1.8,1.8,0,0,0-.15,1.24,3.67,3.67,0,0,0-1.3-.13c-.79,0-1.13.22-2.41.22s-1.9-.69-1.85-1.42a1.73,1.73,0,0,1,1.2-1.51,5.23,5.23,0,0,1,1.6-.32,12.86,12.86,0,0,1,2,0c.08-.24.18-.73-1-.74a8,8,0,0,0-2.52.34Z" transform="translate(-0.11)"/><path class="cls-4" d="M23.8,16.73c-1,0-.88-.94-.54-1.68a2.36,2.36,0,0,1,1.88-1.39,1.32,1.32,0,0,1,1.05.31c-.66,2.56-2,2.76-2.39,2.76M27.47,13c-.85,0-.89-.23-2.28-.23a3.88,3.88,0,0,0-3.87,3.09,1.54,1.54,0,0,0,.36,1.29,1.85,1.85,0,0,0,1.31.49A3.74,3.74,0,0,0,25.25,17c-.41,1.23-1.83,1.49-2.78,1.48a3.36,3.36,0,0,1-1.38-.21l-.41,1a6.69,6.69,0,0,0,1.54.19c2.33,0,3.83-.84,4.45-2.48l1.6-4.2a3.91,3.91,0,0,1-.8.13" transform="translate(-0.11)"/><path class="cls-4" d="M11.12,16.2a4.45,4.45,0,0,1-1.62.37c-1.57,0-2-1-1.89-1.88A3.47,3.47,0,0,1,11.11,12a3.8,3.8,0,0,1,1.46.28l.51-1A4.32,4.32,0,0,0,11.47,11c-2.8,0-5.41,1.59-5.78,3.71C5.36,16.55,7,17.6,9,17.6a7.71,7.71,0,0,0,1.61-.2Z" transform="translate(-0.11)"/><path class="cls-4" d="M37.82,12.71l.35-.94-1.77.31-.25.63h-.78l-.28.78h.78l-.93,2.3a1.33,1.33,0,0,0,0,1.3,1.47,1.47,0,0,0,1.26.43,5.35,5.35,0,0,0,1.23-.17l.38-.91h0a2.66,2.66,0,0,1-.84.19.42.42,0,0,1-.39-.14c-.1-.13-.08-.41.08-.79,0,0,.76-1.89.9-2.21h1.16l.3-.78Z" transform="translate(-0.11)"/><path class="cls-4" d="M42,13.51a.77.77,0,0,1,.63.23.94.94,0,0,1,0,.85H40.44A1.55,1.55,0,0,1,42,13.51m1.27,3h0a4.78,4.78,0,0,1-1.81.35,1.32,1.32,0,0,1-1.08-.44,1.07,1.07,0,0,1-.15-1H44l0-.05a2.14,2.14,0,0,0-.1-2,2.08,2.08,0,0,0-1.74-.66,3.74,3.74,0,0,0-3.74,2.45,2,2,0,0,0,.3,1.85,2.74,2.74,0,0,0,2.17.82,6.66,6.66,0,0,0,1.82-.28Z" transform="translate(-0.11)"/><path class="cls-4" d="M42,13.51a.77.77,0,0,1,.63.23.94.94,0,0,1,0,.85H40.44A1.55,1.55,0,0,1,42,13.51m1.27,3h0a4.78,4.78,0,0,1-1.81.35,1.32,1.32,0,0,1-1.08-.44,1.07,1.07,0,0,1-.15-1H44l0-.05a2.14,2.14,0,0,0-.1-2,2.08,2.08,0,0,0-1.74-.66,3.74,3.74,0,0,0-3.74,2.45,2,2,0,0,0,.3,1.85,2.74,2.74,0,0,0,2.17.82,6.66,6.66,0,0,0,1.82-.28Z" transform="translate(-0.11)"/><path class="cls-4" d="M44.83,12.42h.06c.07,0,.12,0,.12-.07s0-.08-.11-.08h-.07Zm0,.37h-.2v-.64l.28,0a.49.49,0,0,1,.26,0,.16.16,0,0,1-.08.28h0c.07,0,.11.07.13.17a1.27,1.27,0,0,0,0,.15H45a.39.39,0,0,1,0-.14.1.1,0,0,0-.11-.09h-.06Zm.08-.85a.52.52,0,1,0,.5.52.5.5,0,0,0-.5-.52Zm0-.17a.69.69,0,1,1,0,1.38.69.69,0,1,1,0-1.38Z" transform="translate(-0.11)"/><polygon class="cls-4" points="20.32 11.1 17.82 17.56 19.48 17.56 21.98 11.1 20.32 11.1"/><path class="cls-4" d="M35.42,19.76h0a14.9,14.9,0,0,1-4.69,3.62,12.89,12.89,0,0,1-5.61,1.3,12.76,12.76,0,0,1-5.61-1.31,15.09,15.09,0,0,1-4.68-3.61L14.35,21a13,13,0,0,0,17.23,4,12.85,12.85,0,0,0,4.31-4Z" transform="translate(-0.11)"/></g></g></g></svg>